{"accessors" : [{"bufferView" : 0, "byteOffset" : 0, "componentType" : 5123, "count" : 18300, "type" : "SCALAR", "max" : [3575], "min" : [0]}, {"bufferView" : 1, "byteOffset" : 0, "componentType" : 5126, "count" : 3576, "type" : "VEC3", "max" : [1.0759309530258179, 1.1130690574645996, 1.4272769689559937], "min" : [-1.152506947517395, -1.1197619438171387, 0.3328182101249695], "name" : "POSITION"}, {"bufferView" : 1, "byteOffset" : 12, "componentType" : 5126, "count" : 3576, "type" : "VEC3", "max" : [0.996867299079895, 0.9988381862640381, 1.0000044107437134], "min" : [-0.996867299079895, -0.9988381862640381, -1.0000044107437134], "name" : "NORMAL"}, {"bufferView" : 1, "byteOffset" : 24, "componentType" : 5126, "count" : 3576, "type" : "VEC2", "max" : [0.575341522693634, 0.9601387977600098], "min" : [0.03541057929396629, 0.04041510820388794], "name" : "TEXCOORD_0"}, {"bufferView" : 0, "byteOffset" : 36600, "componentType" : 5123, "count" : 3600, "type" : "SCALAR", "max" : [815], "min" : [0]}, {"bufferView" : 2, "byteOffset" : 0, "componentType" : 5126, "count" : 816, "type" : "VEC3", "max" : [1.1251180171966553, 1.1611419916152954, 1.267037034034729], "min" : [-1.2016940116882324, -1.1702580451965332, 0.2814570963382721], "name" : "POSITION"}, {"bufferView" : 2, "byteOffset" : 12, "componentType" : 5126, "count" : 816, "type" : "VEC3", "max" : [0.9980099201202393, 0.9999824166297913, 0.8663843870162964], "min" : [-0.9980099201202393, -0.9999824166297913, -0.8674871921539307], "name" : "NORMAL"}, {"bufferView" : 2, "byteOffset" : 24, "componentType" : 5126, "count" : 816, "type" : "VEC2", "max" : [0.578591525554657, 0.9800360798835754], "min" : [0.017757169902324677, 0.01979649066925049], "name" : "TEXCOORD_0"}, {"bufferView" : 0, "byteOffset" : 43800, "componentType" : 5123, "count" : 1500, "type" : "SCALAR", "max" : [305], "min" : [0]}, {"bufferView" : 3, "byteOffset" : 0, "componentType" : 5126, "count" : 306, "type" : "VEC3", "max" : [1.195330023765564, 1.2314929962158203, 0.2901206910610199], "min" : [-1.2719060182571411, -1.2406079769134521, 0.2656475007534027], "name" : "POSITION"}, {"bufferView" : 3, "byteOffset" : 12, "componentType" : 5126, "count" : 306, "type" : "VEC3", "max" : [0.8081222772598267, 0.8097257018089294, 0.9777445793151855], "min" : [-0.8081222772598267, -0.8097006678581238, -0.9769346714019775], "name" : "NORMAL"}, {"bufferView" : 3, "byteOffset" : 24, "componentType" : 5126, "count" : 306, "type" : "VEC2", "max" : [0.5819274187088013, 0.9980705976486206], "min" : [0.0013431899715214968, 0.0008707046508789062], "name" : "TEXCOORD_0"}, {"bufferView" : 0, "byteOffset" : 46800, "componentType" : 5123, "count" : 1200, "type" : "SCALAR", "max" : [305], "min" : [0]}, {"bufferView" : 4, "byteOffset" : 0, "componentType" : 5126, "count" : 306, "type" : "VEC3", "max" : [0.9180554151535034, 0.9612290263175964, 0.5337008237838745], "min" : [-0.9946315288543701, -0.9552294015884399, 0.4946224093437195], "name" : "POSITION"}, {"bufferView" : 4, "byteOffset" : 12, "componentType" : 5126, "count" : 306, "type" : "VEC3", "max" : [0.9258238673210144, 0.9347916841506958, 0.9498769640922546], "min" : [-0.9258238673210144, -0.9334605932235718, -0.9505866765975952], "name" : "NORMAL"}, {"bufferView" : 4, "byteOffset" : 24, "componentType" : 5126, "count" : 306, "type" : "VEC2", "max" : [0.5632932782173157, 0.8912004828453064], "min" : [0.09661614149808884, 0.1120644211769104], "name" : "TEXCOORD_0"}, {"bufferView" : 0, "byteOffset" : 49200, "componentType" : 5123, "count" : 24900, "type" : "SCALAR", "max" : [4479], "min" : [0]}, {"bufferView" : 5, "byteOffset" : 0, "componentType" : 5126, "count" : 4480, "type" : "VEC3", "max" : [0.5294327735900879, 0.539813220500946, -0.9029113054275513], "min" : [-0.5480641722679138, -0.5398082137107849, -4.371090888977051], "name" : "POSITION"}, {"bufferView" : 5, "byteOffset" : 12, "componentType" : 5126, "count" : 4480, "type" : "VEC3", "max" : [0.9980316758155823, 1.0000041723251343, 1.0000044107437134], "min" : [-0.9980316758155823, -1.0000041723251343, -1.0000044107437134], "name" : "NORMAL"}, {"bufferView" : 5, "byteOffset" : 24, "componentType" : 5126, "count" : 4480, "type" : "VEC2", "max" : [0.4349958002567291, 0.5479904413223267], "min" : [0.15824450552463531, 0.001201927661895752], "name" : "TEXCOORD_0"}, {"bufferView" : 0, "byteOffset" : 99000, "componentType" : 5123, "count" : 26100, "type" : "SCALAR", "max" : [4713], "min" : [0]}, {"bufferView" : 6, "byteOffset" : 0, "componentType" : 5126, "count" : 4714, "type" : "VEC3", "max" : [2.6025640964508057, 2.6186819076538086, -4.370259761810303], "min" : [-2.6244659423828125, -2.6186540126800537, -7.162190914154053], "name" : "POSITION"}, {"bufferView" : 6, "byteOffset" : 12, "componentType" : 5126, "count" : 4714, "type" : "VEC3", "max" : [0.9979792833328247, 0.9998140931129456, 1.0000044107437134], "min" : [-0.9978281259536743, -0.9998146891593933, -1.0000044107437134], "name" : "NORMAL"}, {"bufferView" : 6, "byteOffset" : 24, "componentType" : 5126, "count" : 4714, "type" : "VEC2", "max" : [0.5800303220748901, 0.9926314353942871], "min" : [0.0015031090006232262, 0.5147753953933716], "name" : "TEXCOORD_0"}, {"bufferView" : 0, "byteOffset" : 151200, "componentType" : 5123, "count" : 9900, "type" : "SCALAR", "max" : [1877], "min" : [0]}, {"bufferView" : 7, "byteOffset" : 0, "componentType" : 5126, "count" : 1878, "type" : "VEC3", "max" : [1.8829180002212524, 1.886639952659607, 2.1339290142059326], "min" : [-1.8829180002212524, -1.8866209983825684, -0.5359736084938049], "name" : "POSITION"}, {"bufferView" : 7, "byteOffset" : 12, "componentType" : 5126, "count" : 1878, "type" : "VEC3", "max" : [0.9972625970840454, 0.9992313981056213, 0.7204186916351318], "min" : [-0.9972625970840454, -0.9992313981056213, -0.6246486902236938], "name" : "NORMAL"}, {"bufferView" : 7, "byteOffset" : 24, "componentType" : 5126, "count" : 1878, "type" : "VEC2", "max" : [0.6090602874755859, 0.999921977519989], "min" : [0.0018884530290961266, 7.790327072143555E-05], "name" : "TEXCOORD_0"}, {"bufferView" : 0, "byteOffset" : 171000, "componentType" : 5123, "count" : 1200, "type" : "SCALAR", "max" : [305], "min" : [0]}, {"bufferView" : 8, "byteOffset" : 0, "componentType" : 5126, "count" : 306, "type" : "VEC3", "max" : [1.8769739866256714, 1.8806840181350708, 2.0350160598754883], "min" : [-1.8769739866256714, -1.8806649446487427, 1.6801300048828125], "name" : "POSITION"}, {"bufferView" : 8, "byteOffset" : 12, "componentType" : 5126, "count" : 306, "type" : "VEC3", "max" : [0.9935722947120667, 0.9955361485481262, 0.13486719131469727], "min" : [-0.9935722947120667, -0.9955361485481262, -0.13486719131469727], "name" : "NORMAL"}, {"bufferView" : 8, "byteOffset" : 24, "componentType" : 5126, "count" : 306, "type" : "VEC2", "max" : [0.6088374257087708, 0.9851965308189392], "min" : [0.016063569113612175, 0.015828192234039307], "name" : "TEXCOORD_0"}, {"bufferView" : 0, "byteOffset" : 173400, "componentType" : 5123, "count" : 4500, "type" : "SCALAR", "max" : [945], "min" : [0]}, {"bufferView" : 9, "byteOffset" : 0, "componentType" : 5126, "count" : 946, "type" : "VEC3", "max" : [1.0285429954528809, 1.0305759906768799, -0.515529215335846], "min" : [-1.0285429954528809, -1.0305659770965576, -1.0178250074386597], "name" : "POSITION"}, {"bufferView" : 9, "byteOffset" : 12, "componentType" : 5126, "count" : 946, "type" : "VEC3", "max" : [0.7793765664100647, 0.7809228301048279, 1.0000044107437134], "min" : [-0.7793765664100647, -0.7809228301048279, -1.0000044107437134], "name" : "NORMAL"}, {"bufferView" : 9, "byteOffset" : 24, "componentType" : 5126, "count" : 946, "type" : "VEC2", "max" : [0.5373489260673523, 0.6420897245407104], "min" : [0.2998470067977905, 0.3963618278503418], "name" : "TEXCOORD_0"}, {"bufferView" : 0, "byteOffset" : 182400, "componentType" : 5123, "count" : 13248, "type" : "SCALAR", "max" : [2462], "min" : [0]}, {"bufferView" : 10, "byteOffset" : 0, "componentType" : 5126, "count" : 2463, "type" : "VEC3", "max" : [0.06930135935544968, -1.2739609479904175, 1.7268739938735962], "min" : [-0.061215098947286606, -3.0524179935455322, -0.3585602939128876], "name" : "POSITION"}, {"bufferView" : 10, "byteOffset" : 12, "componentType" : 5126, "count" : 2463, "type" : "VEC3", "max" : [1.0000041723251343, 0.9991996884346008, 0.9984956979751587], "min" : [-0.9999958872795105, -0.999854564666748, -0.9987977743148804], "name" : "NORMAL"}, {"bufferView" : 10, "byteOffset" : 24, "componentType" : 5126, "count" : 2463, "type" : "VEC2", "max" : [0.9980986714363098, 0.9992074370384216], "min" : [0.2499426007270813, 0.4265490770339966], "name" : "TEXCOORD_0"}, {"bufferView" : 0, "byteOffset" : 208896, "componentType" : 5123, "count" : 13248, "type" : "SCALAR", "max" : [2437], "min" : [0]}, {"bufferView" : 11, "byteOffset" : 0, "componentType" : 5126, "count" : 2438, "type" : "VEC3", "max" : [0.06930135935544968, 3.0305209159851074, 1.6983799934387207], "min" : [-0.061215098947286606, 1.2564430236816406, -0.3902462124824524], "name" : "POSITION"}, {"bufferView" : 11, "byteOffset" : 12, "componentType" : 5126, "count" : 2438, "type" : "VEC3", "max" : [0.9999958872795105, 0.9992877840995789, 0.9986304640769958], "min" : [-1.0000041723251343, -0.9999090433120728, -0.9986487627029419], "name" : "NORMAL"}, {"bufferView" : 11, "byteOffset" : 24, "componentType" : 5126, "count" : 2438, "type" : "VEC2", "max" : [0.7472931742668152, 0.9992074370384216], "min" : [0.0007480049971491098, 0.4265490770339966], "name" : "TEXCOORD_0"}], "asset" : {"generator" : "Aspose.3D 24.6.0", "version" : "2.0"}, "buffers" : [{"uri" : "data:application/octet-stream;base64,", "byteLength" : 946768}], "bufferViews" : [{"buffer" : 0, "byteOffset" : 0, "byteLength" : 235392, "target" : 34963}, {"buffer" : 0, "byteOffset" : 235396, "byteLength" : 114432, "byteStride" : 32, "target" : 34962}, {"buffer" : 0, "byteOffset" : 349832, "byteLength" : 26112, "byteStride" : 32, "target" : 34962}, {"buffer" : 0, "byteOffset" : 375948, "byteLength" : 9792, "byteStride" : 32, "target" : 34962}, {"buffer" : 0, "byteOffset" : 385744, "byteLength" : 9792, "byteStride" : 32, "target" : 34962}, {"buffer" : 0, "byteOffset" : 395540, "byteLength" : 143360, "byteStride" : 32, "target" : 34962}, {"buffer" : 0, "byteOffset" : 538904, "byteLength" : 150848, "byteStride" : 32, "target" : 34962}, {"buffer" : 0, "byteOffset" : 689756, "byteLength" : 60096, "byteStride" : 32, "target" : 34962}, {"buffer" : 0, "byteOffset" : 749856, "byteLength" : 9792, "byteStride" : 32, "target" : 34962}, {"buffer" : 0, "byteOffset" : 759652, "byteLength" : 30272, "byteStride" : 32, "target" : 34962}, {"buffer" : 0, "byteOffset" : 789928, "byteLength" : 78816, "byteStride" : 32, "target" : 34962}, {"buffer" : 0, "byteOffset" : 868748, "byteLength" : 78016, "byteStride" : 32, "target" : 34962}], "cameras" : [{"perspective" : {"aspectRatio" : 1.777778, "yfov" : 0.6911111138815845, "zfar" : 100, "znear" : 0.1}, "type" : "perspective", "name" : "Camera"}], "images" : [{"uri" : "Untitled.001.png"}, {"uri" : "Untitled.001.png"}, {"uri" : "Untitled.001.png"}, {"uri" : "Untitled.001.png"}, {"uri" : "Untitled.001.png"}, {"uri" : "Untitled.002.png"}, {"uri" : "Untitled.001.png"}, {"uri" : "Untitled.001.png"}, {"uri" : "Untitled.001.png"}, {"uri" : "Untitled.001.png"}, {"uri" : "Untitled.001.png"}], "materials" : [{"name" : "Material.005", "pbrMetallicRoughness" : {"baseColorFactor" : [1, 1, 1, 1], "baseColorTexture" : {"index" : 0, "texCoord" : 0}, "metallicFactor" : 1, "roughnessFactor" : 1}, "emissiveFactor" : [0, 0, 0], "alphaMode" : "OPAQUE", "doubleSided" : false}, {"name" : "Material.008", "pbrMetallicRoughness" : {"baseColorFactor" : [1, 1, 1, 1], "baseColorTexture" : {"index" : 1, "texCoord" : 0}, "metallicFactor" : 1, "roughnessFactor" : 1}, "emissiveFactor" : [0, 0, 0], "alphaMode" : "OPAQUE", "doubleSided" : false}, {"name" : "Material.010", "pbrMetallicRoughness" : {"baseColorFactor" : [1, 1, 1, 1], "baseColorTexture" : {"index" : 2, "texCoord" : 0}, "metallicFactor" : 1, "roughnessFactor" : 1}, "emissiveFactor" : [0, 0, 0], "alphaMode" : "OPAQUE", "doubleSided" : false}, {"name" : "Material.011", "pbrMetallicRoughness" : {"baseColorFactor" : [1, 1, 1, 1], "baseColorTexture" : {"index" : 3, "texCoord" : 0}, "metallicFactor" : 1, "roughnessFactor" : 1}, "emissiveFactor" : [0, 0, 0], "alphaMode" : "OPAQUE", "doubleSided" : false}, {"name" : "Material.003", "pbrMetallicRoughness" : {"baseColorFactor" : [1, 1, 1, 1], "baseColorTexture" : {"index" : 4, "texCoord" : 0}, "metallicFactor" : 1, "roughnessFactor" : 1}, "emissiveFactor" : [0, 0, 0], "alphaMode" : "OPAQUE", "doubleSided" : false}, {"name" : "Material.004", "pbrMetallicRoughness" : {"baseColorFactor" : [1, 1, 1, 1], "baseColorTexture" : {"index" : 5, "texCoord" : 0}, "metallicFactor" : 1, "roughnessFactor" : 1}, "emissiveFactor" : [0, 0, 0], "alphaMode" : "OPAQUE", "doubleSided" : false}, {"name" : "Material", "pbrMetallicRoughness" : {"baseColorFactor" : [1, 1, 1, 1], "baseColorTexture" : {"index" : 6, "texCoord" : 0}, "metallicFactor" : 1, "roughnessFactor" : 1}, "emissiveFactor" : [0, 0, 0], "alphaMode" : "OPAQUE", "doubleSided" : false}, {"name" : "Material.012", "pbrMetallicRoughness" : {"baseColorFactor" : [1, 1, 1, 1], "baseColorTexture" : {"index" : 7, "texCoord" : 0}, "metallicFactor" : 1, "roughnessFactor" : 1}, "emissiveFactor" : [0, 0, 0], "alphaMode" : "OPAQUE", "doubleSided" : false}, {"name" : "Material.013", "pbrMetallicRoughness" : {"baseColorFactor" : [1, 1, 1, 1], "baseColorTexture" : {"index" : 8, "texCoord" : 0}, "metallicFactor" : 1, "roughnessFactor" : 1}, "emissiveFactor" : [0, 0, 0], "alphaMode" : "OPAQUE", "doubleSided" : false}, {"name" : "Material.006", "pbrMetallicRoughness" : {"baseColorFactor" : [1, 1, 1, 1], "baseColorTexture" : {"index" : 9, "texCoord" : 0}, "metallicFactor" : 1, "roughnessFactor" : 1}, "emissiveFactor" : [0, 0, 0], "alphaMode" : "OPAQUE", "doubleSided" : false}, {"name" : "Material.002", "pbrMetallicRoughness" : {"baseColorFactor" : [1, 1, 1, 1], "baseColorTexture" : {"index" : 10, "texCoord" : 0}, "metallicFactor" : 1, "roughnessFactor" : 1}, "emissiveFactor" : [0, 0, 0], "alphaMode" : "OPAQUE", "doubleSided" : false}], "meshes" : [{"primitives" : [{"attributes" : {"POSITION" : 1, "NORMAL" : 2, "TEXCOORD_0" : 3}, "indices" : 0, "material" : 0, "mode" : 4}, {"attributes" : {"POSITION" : 5, "NORMAL" : 6, "TEXCOORD_0" : 7}, "indices" : 4, "material" : 1, "mode" : 4}, {"attributes" : {"POSITION" : 9, "NORMAL" : 10, "TEXCOORD_0" : 11}, "indices" : 8, "material" : 2, "mode" : 4}, {"attributes" : {"POSITION" : 13, "NORMAL" : 14, "TEXCOORD_0" : 15}, "indices" : 12, "material" : 3, "mode" : 4}], "name" : ""}, {"primitives" : [{"attributes" : {"POSITION" : 17, "NORMAL" : 18, "TEXCOORD_0" : 19}, "indices" : 16, "material" : 4, "mode" : 4}, {"attributes" : {"POSITION" : 21, "NORMAL" : 22, "TEXCOORD_0" : 23}, "indices" : 20, "material" : 5, "mode" : 4}, {"attributes" : {"POSITION" : 25, "NORMAL" : 26, "TEXCOORD_0" : 27}, "indices" : 24, "material" : 6, "mode" : 4}, {"attributes" : {"POSITION" : 29, "NORMAL" : 30, "TEXCOORD_0" : 31}, "indices" : 28, "material" : 7, "mode" : 4}, {"attributes" : {"POSITION" : 33, "NORMAL" : 34, "TEXCOORD_0" : 35}, "indices" : 32, "material" : 8, "mode" : 4}, {"attributes" : {"POSITION" : 37, "NORMAL" : 38, "TEXCOORD_0" : 39}, "indices" : 36, "material" : 9, "mode" : 4}, {"attributes" : {"POSITION" : 41, "NORMAL" : 42, "TEXCOORD_0" : 43}, "indices" : 40, "material" : 10, "mode" : 4}], "name" : ""}], "nodes" : [{"matrix" : [5.972402, 0, 0, 0, 0, 5.972402, 0, 0, 0, 0, 5.972402, 0, 2.617282, -0.08565655, 32.81043, 1], "mesh" : 0, "name" : "Sphere.002"}, {"matrix" : [3.64943, 0, 0, 0, 0, 3.64943, 0, 0, 0, 0, 3.64943, 0, 2.519272, -0.08565655, 26.6255, 1], "mesh" : 1, "name" : "Sphere.001"}, {"camera" : 0, "matrix" : [-0.2310519, -0.9729413, -0.000557664, 0, 0.2603922, -0.06238959, 0.9634851, 0, -0.9374492, 0.2224699, 0.2677615, 0, -34.59639, 10.43762, 32.21568, 1], "name" : "Camera"}], "samplers" : [{"magFilter" : 9729, "minFilter" : 9987, "wrapS" : 10497, "wrapT" : 10497}, {"magFilter" : 9729, "minFilter" : 9987, "wrapS" : 10497, "wrapT" : 10497}, {"magFilter" : 9729, "minFilter" : 9987, "wrapS" : 10497, "wrapT" : 10497}, {"magFilter" : 9729, "minFilter" : 9987, "wrapS" : 10497, "wrapT" : 10497}, {"magFilter" : 9729, "minFilter" : 9987, "wrapS" : 10497, "wrapT" : 10497}, {"magFilter" : 9729, "minFilter" : 9987, "wrapS" : 10497, "wrapT" : 10497}, {"magFilter" : 9729, "minFilter" : 9987, "wrapS" : 10497, "wrapT" : 10497}, {"magFilter" : 9729, "minFilter" : 9987, "wrapS" : 10497, "wrapT" : 10497}, {"magFilter" : 9729, "minFilter" : 9987, "wrapS" : 10497, "wrapT" : 10497}, {"magFilter" : 9729, "minFilter" : 9987, "wrapS" : 10497, "wrapT" : 10497}, {"magFilter" : 9729, "minFilter" : 9987, "wrapS" : 10497, "wrapT" : 10497}], "scene" : 0, "scenes" : [{"nodes" : [0, 1, 2]}], "textures" : [{"sampler" : 0, "source" : 0, "name" : "Untitled_001"}, {"sampler" : 1, "source" : 1, "name" : "Untitled_001"}, {"sampler" : 2, "source" : 2, "name" : "Untitled_001"}, {"sampler" : 3, "source" : 3, "name" : "Untitled_001"}, {"sampler" : 4, "source" : 4, "name" : "Untitled_001_png"}, {"sampler" : 5, "source" : 5, "name" : "Untitled_002"}, {"sampler" : 6, "source" : 6, "name" : "Untitled_001"}, {"sampler" : 7, "source" : 7, "name" : "Untitled_001"}, {"sampler" : 8, "source" : 8, "name" : "Untitled_001"}, {"sampler" : 9, "source" : 9, "name" : "Untitled_001"}, {"sampler" : 10, "source" : 10, "name" : "Untitled_001"}]}