{"accessors" : [{"bufferView" : 0, "byteOffset" : 0, "componentType" : 5123, "count" : 14454, "type" : "SCALAR", "max" : [14453], "min" : [0]}, {"bufferView" : 1, "byteOffset" : 0, "componentType" : 5126, "count" : 14454, "type" : "VEC3", "max" : [21.55590057373047, 30.49080467224121, 36.11349868774414], "min" : [-21.5559024810791, -17.17919921875, 0.013519000262022018], "name" : "POSITION"}, {"bufferView" : 1, "byteOffset" : 12, "componentType" : 5126, "count" : 14454, "type" : "VEC3", "max" : [0.9999872446060181, 0.9996551275253296, 0.9999989867210388], "min" : [-0.9999872446060181, -0.9999291300773621, -1.0000044107437134], "name" : "NORMAL"}, {"bufferView" : 1, "byteOffset" : 24, "componentType" : 5126, "count" : 14454, "type" : "VEC2", "max" : [1, 0.992214024066925], "min" : [0, 0.010610997676849365], "name" : "TEXCOORD_0"}, {"bufferView" : 0, "byteOffset" : 28908, "componentType" : 5123, "count" : 240, "type" : "SCALAR", "max" : [239], "min" : [0]}, {"bufferView" : 2, "byteOffset" : 0, "componentType" : 5126, "count" : 240, "type" : "VEC3", "max" : [6.755390167236328, -11.359102249145508, 26.084197998046875], "min" : [-6.755390167236328, -16.703800201416016, 19.397598266601562], "name" : "POSITION"}, {"bufferView" : 2, "byteOffset" : 12, "componentType" : 5126, "count" : 240, "type" : "VEC3", "max" : [0.9148961305618286, -0.37241050601005554, 0.4901577830314636], "min" : [-0.9148961305618286, -0.9453385472297668, 0.0064461929723620415], "name" : "NORMAL"}, {"bufferView" : 2, "byteOffset" : 24, "componentType" : 5126, "count" : 240, "type" : "VEC2", "max" : [0.48611000180244446, -0.7661099433898926], "min" : [0.013891000300645828, -0.9770699739456177], "name" : "TEXCOORD_0"}, {"bufferView" : 0, "byteOffset" : 29388, "componentType" : 5123, "count" : 108, "type" : "SCALAR", "max" : [107], "min" : [0]}, {"bufferView" : 3, "byteOffset" : 0, "componentType" : 5126, "count" : 108, "type" : "VEC3", "max" : [2.738909959793091, -14.843700408935547, 20.2825984954834], "min" : [-2.738909959793091, -17.15519905090332, 16.118898391723633], "name" : "POSITION"}, {"bufferView" : 3, "byteOffset" : 12, "componentType" : 5126, "count" : 108, "type" : "VEC3", "max" : [0.48530128598213196, -0.5600029230117798, 0.4790198802947998], "min" : [-0.4853012263774872, -0.9987534880638123, -0.7946496605873108], "name" : "NORMAL"}, {"bufferView" : 3, "byteOffset" : 24, "componentType" : 5126, "count" : 108, "type" : "VEC2", "max" : [0.481469988822937, -1.773360013961792], "min" : [0.01853499934077263, -1.98471999168396], "name" : "TEXCOORD_0"}], "asset" : {"generator" : "Aspose.3D 24.6.0", "version" : "2.0"}, "buffers" : [{"uri" : "data:application/octet-stream;base64,", "byteLength" : 503284}], "bufferViews" : [{"buffer" : 0, "byteOffset" : 0, "byteLength" : 29604, "target" : 34963}, {"buffer" : 0, "byteOffset" : 29608, "byteLength" : 462528, "byteStride" : 32, "target" : 34962}, {"buffer" : 0, "byteOffset" : 492140, "byteLength" : 7680, "byteStride" : 32, "target" : 34962}, {"buffer" : 0, "byteOffset" : 499824, "byteLength" : 3456, "byteStride" : 32, "target" : 34962}], "images" : [{"uri" : "C:\\Users\\RandomTBush\\Desktop\\Models\\Pokemon XY\\Eevee\\images\\pm0133_00_Mouth1.png"}], "materials" : [{"name" : "Material #12", "pbrMetallicRoughness" : {"baseColorFactor" : [1, 1, 1, 1], "baseColorTexture" : {"index" : 0, "texCoord" : 0}, "metallicFactor" : 1, "roughnessFactor" : 1}, "emissiveFactor" : [0, 0, 0], "alphaMode" : "OPAQUE", "doubleSided" : false}, {"name" : "Material #13", "pbrMetallicRoughness" : {"baseColorFactor" : [0.5879999995231628, 0.5879999995231628, 0.5879999995231628, 1], "metallicFactor" : 1, "roughnessFactor" : 1}, "emissiveFactor" : [0, 0, 0], "alphaMode" : "OPAQUE", "doubleSided" : false}, {"name" : "Material #14", "pbrMetallicRoughness" : {"baseColorFactor" : [0.5879999995231628, 0.5879999995231628, 0.5879999995231628, 1], "metallicFactor" : 1, "roughnessFactor" : 1}, "emissiveFactor" : [0, 0, 0], "alphaMode" : "OPAQUE", "doubleSided" : false}], "meshes" : [{"primitives" : [{"attributes" : {"POSITION" : 1, "NORMAL" : 2, "TEXCOORD_0" : 3}, "indices" : 0, "material" : 0, "mode" : 4}, {"attributes" : {"POSITION" : 5, "NORMAL" : 6, "TEXCOORD_0" : 7}, "indices" : 4, "material" : 1, "mode" : 4}, {"attributes" : {"POSITION" : 9, "NORMAL" : 10, "TEXCOORD_0" : 11}, "indices" : 8, "material" : 2, "mode" : 4}], "name" : "Eevee_ncl1_1"}], "nodes" : [{"matrix" : [1, 0, 0, 0, 0, 2.83276944882399E-16, -1, 0, 0, 1, 2.83276944882399E-16, 0, 0, 0, 0, 1], "mesh" : 0, "name" : "Eevee"}], "samplers" : [{"magFilter" : 9729, "minFilter" : 9729, "wrapS" : 10497, "wrapT" : 10497}], "scene" : 0, "scenes" : [{"nodes" : [0]}], "textures" : [{"sampler" : 0, "source" : 0, "name" : "Map #2"}]}