{"accessors" : [{"bufferView" : 0, "byteOffset" : 0, "componentType" : 5123, "count" : 8184, "type" : "SCALAR", "max" : [1516], "min" : [0]}, {"bufferView" : 1, "byteOffset" : 0, "componentType" : 5126, "count" : 1517, "type" : "VEC3", "max" : [7.030330181121826, -4.596137046813965, 6.048532009124756], "min" : [-7.035838603973389, -8.450912475585938, 1.6318577527999878], "name" : "POSITION"}, {"bufferView" : 1, "byteOffset" : 12, "componentType" : 5126, "count" : 1517, "type" : "VEC3", "max" : [0.9974952936172485, 0.9787392020225525, 0.9689182639122009], "min" : [-0.9974154829978943, -0.9894366264343262, -0.9689191579818726], "name" : "NORMAL"}, {"bufferView" : 1, "byteOffset" : 24, "componentType" : 5126, "count" : 1517, "type" : "VEC2", "max" : [0.8833207488059998, 0.9999940991401672], "min" : [0, 0.3621056079864502], "name" : "TEXCOORD_0"}, {"bufferView" : 0, "byteOffset" : 16368, "componentType" : 5123, "count" : 8856, "type" : "SCALAR", "max" : [8855], "min" : [0]}, {"bufferView" : 2, "byteOffset" : 0, "componentType" : 5126, "count" : 8856, "type" : "VEC3", "max" : [3.623014211654663, 7.550127983093262, 3.7651736736297607], "min" : [-3.623014211654663, 3.91243839263916, -3.459059715270996], "name" : "POSITION"}, {"bufferView" : 2, "byteOffset" : 12, "componentType" : 5126, "count" : 8856, "type" : "VEC3", "max" : [0.998249888420105, 0.9998565316200256, 0.9996790289878845], "min" : [-0.9982649087905884, -0.999900221824646, -0.9997268319129944], "name" : "NORMAL"}, {"bufferView" : 2, "byteOffset" : 24, "componentType" : 5126, "count" : 8856, "type" : "VEC2", "max" : [0.8326805233955383, 0.9999983310699463], "min" : [0, 0.03067946434020996], "name" : "TEXCOORD_0"}, {"bufferView" : 0, "byteOffset" : 34080, "componentType" : 5123, "count" : 696, "type" : "SCALAR", "max" : [695], "min" : [0]}, {"bufferView" : 3, "byteOffset" : 0, "componentType" : 5126, "count" : 696, "type" : "VEC3", "max" : [4.362483978271484, 3.3042640686035156, 3.9710617065429688], "min" : [-4.362483978271484, -6.4351959228515625, 1.953826904296875], "name" : "POSITION"}, {"bufferView" : 3, "byteOffset" : 12, "componentType" : 5126, "count" : 696, "type" : "VEC3", "max" : [0.3785960376262665, 0.008678817190229893, 1.0000044107437134], "min" : [-0.37859612703323364, -0.007677057292312384, -1.0000044107437134], "name" : "NORMAL"}, {"bufferView" : 3, "byteOffset" : 24, "componentType" : 5126, "count" : 696, "type" : "VEC2", "max" : [0.7444412112236023, 0.9774219393730164], "min" : [0.023247279226779938, 0.5801286697387695], "name" : "TEXCOORD_0"}, {"bufferView" : 0, "byteOffset" : 35472, "componentType" : 5123, "count" : 3336, "type" : "SCALAR", "max" : [3335], "min" : [0]}, {"bufferView" : 4, "byteOffset" : 0, "componentType" : 5126, "count" : 3336, "type" : "VEC3", "max" : [4.8428802490234375, 3.764263153076172, 4.121059417724609], "min" : [-4.8428802490234375, -6.905830383300781, 1.6331710815429688], "name" : "POSITION"}, {"bufferView" : 4, "byteOffset" : 12, "componentType" : 5126, "count" : 3336, "type" : "VEC3", "max" : [0.9981372952461243, 0.999977171421051, 0.9999235272407532], "min" : [-0.9981372952461243, -0.9999771118164062, -0.9999634027481079], "name" : "NORMAL"}, {"bufferView" : 4, "byteOffset" : 24, "componentType" : 5126, "count" : 3336, "type" : "VEC2", "max" : [1, 1], "min" : [0, 0.4620313048362732], "name" : "TEXCOORD_0"}, {"bufferView" : 0, "byteOffset" : 42144, "componentType" : 5123, "count" : 50328, "type" : "SCALAR", "max" : [9167], "min" : [0]}, {"bufferView" : 5, "byteOffset" : 0, "componentType" : 5126, "count" : 9168, "type" : "VEC3", "max" : [11.685054779052734, 7.6865410804748535, 0.29109299182891846], "min" : [-11.685054779052734, -2.8520519733428955, -3.2938928604125977], "name" : "POSITION"}, {"bufferView" : 5, "byteOffset" : 12, "componentType" : 5126, "count" : 9168, "type" : "VEC3", "max" : [0.9973403811454773, 0.9999662637710571, 0.9997020363807678], "min" : [-0.9973403215408325, -0.9998812675476074, -0.9997971653938293], "name" : "NORMAL"}, {"bufferView" : 5, "byteOffset" : 24, "componentType" : 5126, "count" : 9168, "type" : "VEC2", "max" : [0.998603880405426, 0.9999985098838806], "min" : [0, 0], "name" : "TEXCOORD_0"}, {"bufferView" : 0, "byteOffset" : 142800, "componentType" : 5123, "count" : 1956, "type" : "SCALAR", "max" : [515], "min" : [0]}, {"bufferView" : 6, "byteOffset" : 0, "componentType" : 5126, "count" : 516, "type" : "VEC3", "max" : [2.5673465728759766, 3.60813307762146, -3.6696810722351074], "min" : [-3.86250376701355, -1.5201678276062012, -4.8182597160339355], "name" : "POSITION"}, {"bufferView" : 6, "byteOffset" : 12, "componentType" : 5126, "count" : 516, "type" : "VEC3", "max" : [0.9999200105667114, 0.9999068379402161, 1.0000044107437134], "min" : [-0.9999012351036072, -0.9996796250343323, -1.0000044107437134], "name" : "NORMAL"}, {"bufferView" : 6, "byteOffset" : 24, "componentType" : 5126, "count" : 516, "type" : "VEC2", "max" : [0.9996198415756226, 1], "min" : [0, 0.47817540168762207], "name" : "TEXCOORD_0"}, {"bufferView" : 0, "byteOffset" : 146712, "componentType" : 5123, "count" : 7524, "type" : "SCALAR", "max" : [7523], "min" : [0]}, {"bufferView" : 7, "byteOffset" : 0, "componentType" : 5126, "count" : 7524, "type" : "VEC3", "max" : [8.038264274597168, 6.214402198791504, 0.21090900897979736], "min" : [-8.038264274597168, -5.113795280456543, -1.8474807739257812], "name" : "POSITION"}, {"bufferView" : 7, "byteOffset" : 12, "componentType" : 5126, "count" : 7524, "type" : "VEC3", "max" : [0.9961965084075928, 0.9756195545196533, 1.0000017881393433], "min" : [-0.9961965680122375, -0.9756190180778503, -0.9975021481513977], "name" : "NORMAL"}, {"bufferView" : 7, "byteOffset" : 24, "componentType" : 5126, "count" : 7524, "type" : "VEC2", "max" : [0.9990196824073792, 1], "min" : [0, 0.011762022972106934], "name" : "TEXCOORD_0"}, {"bufferView" : 0, "byteOffset" : 161760, "componentType" : 5123, "count" : 720, "type" : "SCALAR", "max" : [719], "min" : [0]}, {"bufferView" : 8, "byteOffset" : 0, "componentType" : 5126, "count" : 720, "type" : "VEC3", "max" : [6.840726852416992, 5.255914211273193, -0.5989381670951843], "min" : [-6.840726852416992, 3.4192051887512207, -1.595311164855957], "name" : "POSITION"}, {"bufferView" : 8, "byteOffset" : 12, "componentType" : 5126, "count" : 720, "type" : "VEC3", "max" : [0.9961737990379333, 0.9304794669151306, 0.99671870470047], "min" : [-0.9961743354797363, -0.7275044322013855, -0.9984342455863953], "name" : "NORMAL"}, {"bufferView" : 8, "byteOffset" : 24, "componentType" : 5126, "count" : 720, "type" : "VEC2", "max" : [0.9916172027587891, 0.999978244304657], "min" : [0.09202075004577637, 0.3872365951538086], "name" : "TEXCOORD_0"}, {"bufferView" : 0, "byteOffset" : 163200, "componentType" : 5123, "count" : 22464, "type" : "SCALAR", "max" : [22463], "min" : [0]}, {"bufferView" : 9, "byteOffset" : 0, "componentType" : 5126, "count" : 22464, "type" : "VEC3", "max" : [8.347684860229492, -2.5806047916412354, 5.961739540100098], "min" : [-8.347684860229492, -7.135453701019287, -0.907586932182312], "name" : "POSITION"}, {"bufferView" : 9, "byteOffset" : 12, "componentType" : 5126, "count" : 22464, "type" : "VEC3", "max" : [0.9999359846115112, 0.9999971389770508, 0.9989085793495178], "min" : [-0.9999359846115112, -0.9990087151527405, -0.9989941120147705], "name" : "NORMAL"}, {"bufferView" : 9, "byteOffset" : 24, "componentType" : 5126, "count" : 22464, "type" : "VEC2", "max" : [1, 0.9999799728393555], "min" : [0, 0.0262758731842041], "name" : "TEXCOORD_0"}], "asset" : {"generator" : "Aspose.3D 24.6.0", "version" : "2.0"}, "buffers" : [{"uri" : "data:application/octet-stream;base64,", "byteLength" : 1961672}], "bufferViews" : [{"buffer" : 0, "byteOffset" : 0, "byteLength" : 208128, "target" : 34963}, {"buffer" : 0, "byteOffset" : 208132, "byteLength" : 48544, "byteStride" : 32, "target" : 34962}, {"buffer" : 0, "byteOffset" : 256680, "byteLength" : 283392, "byteStride" : 32, "target" : 34962}, {"buffer" : 0, "byteOffset" : 540076, "byteLength" : 22272, "byteStride" : 32, "target" : 34962}, {"buffer" : 0, "byteOffset" : 562352, "byteLength" : 106752, "byteStride" : 32, "target" : 34962}, {"buffer" : 0, "byteOffset" : 669108, "byteLength" : 293376, "byteStride" : 32, "target" : 34962}, {"buffer" : 0, "byteOffset" : 962488, "byteLength" : 16512, "byteStride" : 32, "target" : 34962}, {"buffer" : 0, "byteOffset" : 979004, "byteLength" : 240768, "byteStride" : 32, "target" : 34962}, {"buffer" : 0, "byteOffset" : 1219776, "byteLength" : 23040, "byteStride" : 32, "target" : 34962}, {"buffer" : 0, "byteOffset" : 1242820, "byteLength" : 718848, "byteStride" : 32, "target" : 34962}], "materials" : [{"name" : "shield_bannar_crown_matte", "pbrMetallicRoughness" : {"baseColorFactor" : [0.5, 0.5, 0.5, 1], "metallicFactor" : 1, "roughnessFactor" : 1}, "emissiveFactor" : [0, 0, 0], "alphaMode" : "OPAQUE", "doubleSided" : false}, {"name" : "shield_bannar_crown", "pbrMetallicRoughness" : {"baseColorFactor" : [0.5, 0.5, 0.5, 1], "metallicFactor" : 1, "roughnessFactor" : 1}, "emissiveFactor" : [0, 0, 0], "alphaMode" : "OPAQUE", "doubleSided" : false}, {"name" : "logo_wing", "pbrMetallicRoughness" : {"baseColorFactor" : [0.5, 0.5, 0.5, 1], "metallicFactor" : 1, "roughnessFactor" : 1}, "emissiveFactor" : [0, 0, 0], "alphaMode" : "OPAQUE", "doubleSided" : false}, {"name" : "sword_horn", "pbrMetallicRoughness" : {"baseColorFactor" : [0.5, 0.5, 0.5, 1], "metallicFactor" : 1, "roughnessFactor" : 1}, "emissiveFactor" : [0, 0, 0], "alphaMode" : "OPAQUE", "doubleSided" : false}, {"name" : "sword_horn_matte", "pbrMetallicRoughness" : {"baseColorFactor" : [0.5, 0.5, 0.5, 1], "metallicFactor" : 1, "roughnessFactor" : 1}, "emissiveFactor" : [0, 0, 0], "alphaMode" : "OPAQUE", "doubleSided" : false}], "meshes" : [{"primitives" : [{"attributes" : {"POSITION" : 1, "NORMAL" : 2, "TEXCOORD_0" : 3}, "indices" : 0, "material" : 0, "mode" : 4}], "name" : ""}, {"primitives" : [{"attributes" : {"POSITION" : 5, "NORMAL" : 6, "TEXCOORD_0" : 7}, "indices" : 4, "material" : 1, "mode" : 4}], "name" : ""}, {"primitives" : [{"attributes" : {"POSITION" : 9, "NORMAL" : 10, "TEXCOORD_0" : 11}, "indices" : 8, "material" : 0, "mode" : 4}, {"attributes" : {"POSITION" : 13, "NORMAL" : 14, "TEXCOORD_0" : 15}, "indices" : 12, "material" : 1, "mode" : 4}], "name" : ""}, {"primitives" : [{"attributes" : {"POSITION" : 17, "NORMAL" : 18, "TEXCOORD_0" : 19}, "indices" : 16, "material" : 2, "mode" : 4}], "name" : ""}, {"primitives" : [{"attributes" : {"POSITION" : 21, "NORMAL" : 22, "TEXCOORD_0" : 23}, "indices" : 20, "material" : 2, "mode" : 4}], "name" : ""}, {"primitives" : [{"attributes" : {"POSITION" : 25, "NORMAL" : 26, "TEXCOORD_0" : 27}, "indices" : 24, "material" : 3, "mode" : 4}, {"attributes" : {"POSITION" : 29, "NORMAL" : 30, "TEXCOORD_0" : 31}, "indices" : 28, "material" : 4, "mode" : 4}], "name" : ""}, {"primitives" : [{"attributes" : {"POSITION" : 33, "NORMAL" : 34, "TEXCOORD_0" : 35}, "indices" : 32, "material" : 3, "mode" : 4}], "name" : ""}], "nodes" : [{"matrix" : [1, 0, 0, 0, 0, 0.9529620422972294, 0.30308966650265984, 0, 0, -0.30308966650265984, 0.9529620422972294, 0, 0, 0.5141659451607064, 2.3454195057478793, 1], "mesh" : 0, "name" : "bannar"}, {"matrix" : [1, 0, 0, 0, 0, 0.9925070604437911, -0.12218729463092581, 0, 0, 0.12218729463092581, 0.9925070604437911, 0, 0, 0.2737570180447051, 0.5048575096325076, 1], "mesh" : 1, "name" : "crown"}, {"matrix" : [1.1, 0, 0, 0, 0, 0.989005811389122, -0.147876654812531, 0, 0, 0.147876654812531, 0.989005811389122, 0, 0, 0, 0.23274263298685316, 1], "mesh" : 2, "name" : "shield"}, {"matrix" : [1, 0, 0, 0, 0, 1, 0, 0, 0, 0, 1, 0, 0, 0, -2.155483348494367, 1], "mesh" : 3, "name" : "wing"}, {"matrix" : [1.5, 0, 0, 0, 0, 1.466575585915673, 0.3148905378002024, 0, 0, -0.3148905378002024, 1.466575585915673, 0, 0.3284384124716464, -1.827223874838361, 0.7791429098726708, 1], "mesh" : 4, "name" : "logo"}, {"mesh" : 5, "name" : "sword"}, {"matrix" : [1, 0, 0, 0, 0, 1, 0, 0, 0, 0, 1, 0, 0, -0.3861652375134086, 0, 1], "mesh" : 6, "name" : "horn"}, {"children" : [0, 1, 2, 3, 4, 5, 6], "name" : "GrengeAward2024"}], "scene" : 0, "scenes" : [{"nodes" : [7]}]}